<svg width="20" height="20" viewBox="0 0 20 20" fill="none" xmlns="http://www.w3.org/2000/svg">
<g clip-path="url(#clip0)">
<path d="M8.96736 7.33697H10.5978V4.89132H13.0434V3.26088H10.5978V0.815231H8.96736V3.26088H6.52171V4.89132H8.96736V7.33697ZM5.70649 14.6739C4.80975 14.6739 4.08421 15.4076 4.08421 16.3044C4.08421 17.2011 4.80975 17.9348 5.70649 17.9348C6.60323 17.9348 7.33692 17.2011 7.33692 16.3044C7.33692 15.4076 6.60323 14.6739 5.70649 14.6739ZM13.8587 14.6739C12.9619 14.6739 12.2364 15.4076 12.2364 16.3044C12.2364 17.2011 12.9619 17.9348 13.8587 17.9348C14.7554 17.9348 15.4891 17.2011 15.4891 16.3044C15.4891 15.4076 14.7554 14.6739 13.8587 14.6739ZM6.60323 10.5978H12.6766C13.288 10.5978 13.8261 10.2636 14.1032 9.75817L17.25 4.04349L15.8315 3.26088L12.6766 8.96741H6.95377L3.48095 1.63045H0.815186V3.26088H2.44562L5.3804 9.44838L4.27986 11.4375C3.68475 12.5299 4.46736 13.8587 5.70649 13.8587H15.4891V12.2283H5.70649L6.60323 10.5978Z" fill="white"/>
</g>
<defs>
<clipPath id="clip0">
<rect width="19.5652" height="19.5652" fill="white"/>
</clipPath>
</defs>
</svg>
