<svg width="28" height="28" viewBox="0 0 28 28" fill="none" xmlns="http://www.w3.org/2000/svg">
<path d="M20.9998 6.99998H18.6665C18.6665 4.42165 16.5782 2.33331 13.9998 2.33331C11.4215 2.33331 9.33317 4.42165 9.33317 6.99998H6.99984C5.7165 6.99998 4.6665 8.04998 4.6665 9.33331V23.3333C4.6665 24.6166 5.7165 25.6666 6.99984 25.6666H20.9998C22.2832 25.6666 23.3332 24.6166 23.3332 23.3333V9.33331C23.3332 8.04998 22.2832 6.99998 20.9998 6.99998ZM13.9998 4.66665C15.2832 4.66665 16.3332 5.71665 16.3332 6.99998H11.6665C11.6665 5.71665 12.7165 4.66665 13.9998 4.66665ZM20.9998 23.3333H6.99984V9.33331H9.33317V11.6666C9.33317 12.3083 9.85817 12.8333 10.4998 12.8333C11.1415 12.8333 11.6665 12.3083 11.6665 11.6666V9.33331H16.3332V11.6666C16.3332 12.3083 16.8582 12.8333 17.4998 12.8333C18.1415 12.8333 18.6665 12.3083 18.6665 11.6666V9.33331H20.9998V23.3333Z" fill="white"/>
</svg>
