<svg width="28" height="28" viewBox="0 0 28 28" fill="none" xmlns="http://www.w3.org/2000/svg">
<path d="M14.0002 2.33334C7.56016 2.33334 2.3335 7.56001 2.3335 14C2.3335 20.44 7.56016 25.6667 14.0002 25.6667C20.4402 25.6667 25.6668 20.44 25.6668 14C25.6668 7.56001 20.4402 2.33334 14.0002 2.33334ZM8.2485 21.3267C8.75016 20.2767 11.8068 19.25 14.0002 19.25C16.1935 19.25 19.2618 20.2767 19.7518 21.3267C18.1652 22.5867 16.1702 23.3333 14.0002 23.3333C11.8302 23.3333 9.83516 22.5867 8.2485 21.3267ZM21.4202 19.635C19.7518 17.605 15.7035 16.9167 14.0002 16.9167C12.2968 16.9167 8.2485 17.605 6.58016 19.635C5.39016 18.0717 4.66683 16.1233 4.66683 14C4.66683 8.85501 8.85516 4.66668 14.0002 4.66668C19.1452 4.66668 23.3335 8.85501 23.3335 14C23.3335 16.1233 22.6102 18.0717 21.4202 19.635ZM14.0002 7.00001C11.7368 7.00001 9.91683 8.82001 9.91683 11.0833C9.91683 13.3467 11.7368 15.1667 14.0002 15.1667C16.2635 15.1667 18.0835 13.3467 18.0835 11.0833C18.0835 8.82001 16.2635 7.00001 14.0002 7.00001ZM14.0002 12.8333C13.0318 12.8333 12.2502 12.0517 12.2502 11.0833C12.2502 10.115 13.0318 9.33334 14.0002 9.33334C14.9685 9.33334 15.7502 10.115 15.7502 11.0833C15.7502 12.0517 14.9685 12.8333 14.0002 12.8333Z" fill="white"/>
</svg>
