<svg width="105" height="38" viewBox="0 0 105 38" fill="none" xmlns="http://www.w3.org/2000/svg">
<path d="M14 10L28 24L14 38L0 24L14 10Z" fill="#AD0C07"/>
<path d="M34 0L48 14L34 28L20 14L34 0Z" fill="#AD0C07"/>
<path d="M23.088 28.144C22.2133 28.144 21.392 28.0267 20.624 27.792C19.8667 27.5573 19.2213 27.2213 18.688 26.784L19.392 25.28C19.9467 25.696 20.5227 26.0053 21.12 26.208C21.728 26.4 22.3893 26.496 23.104 26.496C23.8933 26.496 24.5013 26.3573 24.928 26.08C25.3653 25.8027 25.584 25.4133 25.584 24.912C25.584 24.4853 25.3813 24.16 24.976 23.936C24.5813 23.7013 23.9253 23.4827 23.008 23.28C21.5787 22.9707 20.5387 22.5707 19.888 22.08C19.2373 21.5893 18.912 20.8747 18.912 19.936C18.912 19.264 19.0933 18.6667 19.456 18.144C19.8187 17.6213 20.3307 17.2107 20.992 16.912C21.664 16.6133 22.4373 16.464 23.312 16.464C24.112 16.464 24.8693 16.5867 25.584 16.832C26.3093 17.0667 26.9013 17.3973 27.36 17.824L26.672 19.328C25.6587 18.5173 24.5387 18.112 23.312 18.112C22.576 18.112 21.9947 18.2667 21.568 18.576C21.1413 18.8747 20.928 19.2853 20.928 19.808C20.928 20.256 21.1147 20.5973 21.488 20.832C21.872 21.0667 22.5227 21.2853 23.44 21.488C24.3893 21.712 25.1627 21.9573 25.76 22.224C26.3573 22.48 26.816 22.816 27.136 23.232C27.456 23.6373 27.616 24.1493 27.616 24.768C27.616 25.4507 27.4347 26.048 27.072 26.56C26.7093 27.0613 26.1867 27.4507 25.504 27.728C24.8213 28.0053 24.016 28.144 23.088 28.144ZM31.8195 21.424V25.04C31.8195 25.9893 32.2622 26.464 33.1475 26.464C33.3928 26.464 33.6595 26.4213 33.9475 26.336V27.92C33.5955 28.048 33.1688 28.112 32.6675 28.112C31.7502 28.112 31.0462 27.856 30.5555 27.344C30.0648 26.832 29.8195 26.096 29.8195 25.136V21.424H28.2675V19.92H29.8195V17.952L31.8195 17.28V19.92H33.9635V21.424H31.8195ZM39.002 28.128C38.1807 28.128 37.4553 27.9573 36.826 27.616C36.2073 27.2747 35.7273 26.7893 35.386 26.16C35.0553 25.52 34.89 24.7733 34.89 23.92C34.89 23.0667 35.0553 22.3253 35.386 21.696C35.7273 21.056 36.2073 20.5653 36.826 20.224C37.4553 19.8827 38.1807 19.712 39.002 19.712C39.8127 19.712 40.5273 19.8827 41.146 20.224C41.7647 20.5653 42.2393 21.056 42.57 21.696C42.9113 22.3253 43.082 23.0667 43.082 23.92C43.082 24.7733 42.9113 25.52 42.57 26.16C42.2393 26.7893 41.7647 27.2747 41.146 27.616C40.5273 27.9573 39.8127 28.128 39.002 28.128ZM38.986 26.56C39.6687 26.56 40.186 26.3413 40.538 25.904C40.9007 25.456 41.082 24.7947 41.082 23.92C41.082 23.056 40.9007 22.4 40.538 21.952C40.1753 21.4933 39.6633 21.264 39.002 21.264C38.33 21.264 37.8127 21.4933 37.45 21.952C37.0873 22.4 36.906 23.056 36.906 23.92C36.906 24.7947 37.082 25.456 37.434 25.904C37.7967 26.3413 38.314 26.56 38.986 26.56ZM49.1588 19.728C49.4681 19.728 49.7348 19.7707 49.9588 19.856L49.9428 21.68C49.6014 21.5413 49.2494 21.472 48.8868 21.472C48.2041 21.472 47.6814 21.6693 47.3188 22.064C46.9668 22.4587 46.7908 22.9813 46.7908 23.632V28H44.8068V22.208C44.8068 21.3547 44.7641 20.592 44.6788 19.92H46.5508L46.7108 21.344C46.9134 20.8213 47.2334 20.4213 47.6708 20.144C48.1081 19.8667 48.6041 19.728 49.1588 19.728ZM59.2048 19.92L55.4448 28.544C55.0181 29.5467 54.4741 30.2773 53.8128 30.736C53.1514 31.1947 52.3354 31.4987 51.3648 31.648L50.9168 30.112C51.6741 29.9413 52.2394 29.7227 52.6128 29.456C52.9968 29.2 53.3061 28.816 53.5408 28.304L53.7968 27.712L50.4367 19.92H52.5328L54.8528 25.728L57.2208 19.92H59.2048ZM69.8923 21.84V27.312C69.3696 27.568 68.7403 27.7707 68.0043 27.92C67.2683 28.0693 66.5163 28.144 65.7483 28.144C64.5749 28.144 63.5563 27.9093 62.6923 27.44C61.8283 26.9707 61.1669 26.2987 60.7083 25.424C60.2496 24.5493 60.0203 23.504 60.0203 22.288C60.0203 21.0933 60.2496 20.0587 60.7083 19.184C61.1669 18.3093 61.8176 17.6373 62.6603 17.168C63.5136 16.6987 64.5109 16.464 65.6523 16.464C66.4523 16.464 67.1989 16.5813 67.8923 16.816C68.5963 17.0507 69.1829 17.3813 69.6523 17.808L68.9483 19.312C68.4149 18.896 67.8923 18.5973 67.3802 18.416C66.8683 18.2347 66.3083 18.144 65.7003 18.144C64.5269 18.144 63.6363 18.496 63.0283 19.2C62.4309 19.904 62.1323 20.9333 62.1323 22.288C62.1323 23.6853 62.4416 24.7413 63.0603 25.456C63.6789 26.16 64.6016 26.512 65.8283 26.512C66.5749 26.512 67.3109 26.4107 68.0363 26.208V23.328H65.5723V21.84H69.8923ZM79.8004 19.92V28H77.8324V26.704C77.587 27.152 77.235 27.504 76.7764 27.76C76.3177 28.0053 75.795 28.128 75.2084 28.128C74.5044 28.128 73.8804 27.9573 73.3364 27.616C72.7924 27.2747 72.371 26.7893 72.0724 26.16C71.7737 25.5307 71.6244 24.8 71.6244 23.968C71.6244 23.136 71.7737 22.4 72.0724 21.76C72.3817 21.1093 72.8084 20.608 73.3524 20.256C73.8964 19.8933 74.515 19.712 75.2084 19.712C75.795 19.712 76.3177 19.84 76.7764 20.096C77.235 20.3413 77.587 20.688 77.8324 21.136V19.92H79.8004ZM75.7524 26.56C76.4137 26.56 76.9257 26.3307 77.2884 25.872C77.651 25.4133 77.8324 24.768 77.8324 23.936C77.8324 23.0827 77.651 22.4267 77.2884 21.968C76.9257 21.5093 76.4084 21.28 75.7364 21.28C75.075 21.28 74.5577 21.52 74.1844 22C73.8217 22.4693 73.6404 23.1253 73.6404 23.968C73.6404 24.8 73.8217 25.44 74.1844 25.888C74.5577 26.336 75.0804 26.56 75.7524 26.56ZM91.5146 19.712C92.432 19.712 93.1146 19.9893 93.5626 20.544C94.0106 21.088 94.2346 21.92 94.2346 23.04V28H92.2346V23.104C92.2346 22.464 92.128 22.0053 91.9146 21.728C91.712 21.44 91.3706 21.296 90.8906 21.296C90.336 21.296 89.8986 21.4933 89.5786 21.888C89.2693 22.272 89.1146 22.8053 89.1146 23.488V28H87.1146V23.104C87.1146 22.4747 87.0026 22.016 86.7786 21.728C86.5653 21.44 86.224 21.296 85.7546 21.296C85.2 21.296 84.7626 21.4933 84.4426 21.888C84.1226 22.272 83.9626 22.8053 83.9626 23.488V28H81.9786V22.208C81.9786 21.3547 81.936 20.592 81.8506 19.92H83.7226L83.8666 21.2C84.1013 20.72 84.4373 20.352 84.8746 20.096C85.3226 19.84 85.8346 19.712 86.4106 19.712C87.648 19.712 88.4533 20.224 88.8266 21.248C89.0826 20.768 89.4453 20.3947 89.9146 20.128C90.3946 19.8507 90.928 19.712 91.5146 19.712ZM103.441 24.064H97.8733C97.9159 24.928 98.1293 25.568 98.5133 25.984C98.9079 26.3893 99.4893 26.592 100.257 26.592C101.143 26.592 101.964 26.304 102.721 25.728L103.297 27.104C102.913 27.4133 102.439 27.664 101.873 27.856C101.319 28.0373 100.753 28.128 100.177 28.128C98.8546 28.128 97.8146 27.7547 97.0573 27.008C96.2999 26.2613 95.9213 25.2373 95.9213 23.936C95.9213 23.1147 96.0866 22.384 96.4173 21.744C96.7479 21.104 97.2119 20.608 97.8093 20.256C98.4066 19.8933 99.0839 19.712 99.8413 19.712C100.951 19.712 101.825 20.0747 102.465 20.8C103.116 21.5147 103.441 22.5013 103.441 23.76V24.064ZM99.8893 21.152C99.3559 21.152 98.9186 21.312 98.5773 21.632C98.2466 21.9413 98.0333 22.3947 97.9373 22.992H101.697C101.633 22.384 101.447 21.9253 101.137 21.616C100.839 21.3067 100.423 21.152 99.8893 21.152Z" fill="white"/>
</svg>
